<!DOCTYPE svg PUBLIC "-//W3C//DTD SVG 1.1//EN" "http://www.w3.org/Graphics/SVG/1.1/DTD/svg11.dtd">
<!-- Uploaded to: SVG Repo, www.svgrepo.com, Transformed by: SVG Repo Mixer Tools -->
<svg width="256px" height="256px" viewBox="-102.4 -102.4 1228.80 1228.80" class="icon" version="1.1" xmlns="http://www.w3.org/2000/svg" fill="#000000">
<g id="SVGRepo_bgCarrier" stroke-width="0">
<path transform="translate(-102.4, -102.4), scale(38.4)" d="M16,29.218664824031293C18.223318465186768,29.624629729624033,20.893858522539738,30.100351502762717,22.6608741706298,28.691235396255443C24.492263570957018,27.230784095738013,23.648345848410635,24.12226083050036,24.88526969549257,22.133058846454002C26.039270868035114,20.277211837417077,28.62259451192869,19.630624575830943,29.530909469024653,17.64294986252984C30.51939171061123,15.479844278063226,30.642072895534977,12.962365061784597,30.138161791714886,10.638102488207874C29.601854647730317,8.164414940433181,28.9106330369398,5.050449852952645,26.584460449422888,4.052613929672004C24.036167866708197,2.9594973244348037,21.24590588914188,6.302520229843605,18.547102917193424,5.665997238612196C15.89202496210674,5.039786959651296,14.91297610310215,0.22824548232401443,12.220199908509038,0.6647482049915983C9.642305250880238,1.0826284725996604,9.9867321806968,5.318887843005449,8.314385661015564,7.324734771860527C6.957578526706492,8.952117249937658,4.684164289180193,9.530811359402064,3.4142066955450954,11.226838198822069C1.9307854717041466,13.207945459733043,0.31537538795391856,15.420676161248647,0.4001683323090379,17.89416249902445C0.48534376505325083,20.378806366615663,1.9696941612964314,22.767284702795674,3.86497662436836,24.376201850530073C5.660207911622317,25.900184928773,8.316987369883849,25.598707151497067,10.504139655323351,26.471487007934556C12.434397061600428,27.24175334611017,13.955533011827875,28.845357148663677,16,29.218664824031293" fill="#7ed0ec" strokewidth="0"/>
</g>
<g id="SVGRepo_tracerCarrier" stroke-linecap="round" stroke-linejoin="round" stroke="#ebebeb" stroke-width="10.24">
<path d="M854.7 828.1H169.9c-38.9 0-70.5-31.6-70.5-70.5v-499c0-38.9 31.6-70.5 70.5-70.5h684.7c38.9 0 70.5 31.6 70.5 70.5v499c0.1 38.9-31.5 70.5-70.4 70.5z" fill="#FFFFFF"/>
<path d="M885.2 258.1c0-16.5-13.5-30-30-30H169.4c-16.5 0-30 13.5-30 30v120.1h745.7V258.1z m-649.7 96.1c-28.2 0-51.2-23-51.2-51.2s23-51.2 51.2-51.2 51.2 23 51.2 51.2-22.9 51.2-51.2 51.2z m281.8-6.8H374.7c-24.1 0-43.7-19.6-43.7-43.7s19.6-43.7 43.7-43.7h142.6c24.1 0 43.7 19.6 43.7 43.7s-19.6 43.7-43.7 43.7z" fill="#E6E6E6"/>
<path d="M213.3 752.8h298.8c5.5 0 10-4.5 10-10s-4.5-10-10-10H213.3c-8.5 0-15.4-6.9-15.4-15.4V524.6c0-5.5-4.5-10-10-10s-10 4.5-10 10v192.9c0.1 19.4 15.9 35.3 35.4 35.3z" fill="#06F3FF"/>
<path d="M235.5 271.8c-17.2 0-31.2 14-31.2 31.2s14 31.2 31.2 31.2 31.2-14 31.2-31.2-14-31.2-31.2-31.2z" fill="#FFFFFF"/>
<path d="M235.5 251.8c-28.2 0-51.2 23-51.2 51.2s23 51.2 51.2 51.2 51.2-23 51.2-51.2-22.9-51.2-51.2-51.2z m0 82.4c-17.2 0-31.2-14-31.2-31.2s14-31.2 31.2-31.2 31.2 14 31.2 31.2-14 31.2-31.2 31.2z" fill="#0b70b9"/>
<path d="M517.3 280.1H374.7c-13 0-23.7 10.6-23.7 23.7s10.6 23.7 23.7 23.7h142.6c13 0 23.7-10.6 23.7-23.7s-10.7-23.7-23.7-23.7z" fill="#FFFFFF"/>
<path d="M517.3 260.1H374.7c-24.1 0-43.7 19.6-43.7 43.7s19.6 43.7 43.7 43.7h142.6c24.1 0 43.7-19.6 43.7-43.7s-19.6-43.7-43.7-43.7z m0 67.3H374.7c-13 0-23.7-10.6-23.7-23.7s10.6-23.7 23.7-23.7h142.6c13 0 23.7 10.6 23.7 23.7s-10.7 23.7-23.7 23.7z" fill="#0b70b9"/>
<path d="M855.2 188.1H169.4c-38.6 0-70 31.4-70 70v500c0 38.6 31.4 70 70 70h685.7c38.6 0 70-31.4 70-70v-500c0.1-38.6-31.3-70-69.9-70z m30 570c0 16.5-13.5 30-30 30H169.4c-16.5 0-30-13.5-30-30V398.2h745.7v359.9z m0-379.9H139.5V258.1c0-16.5 13.5-30 30-30h685.7c16.5 0 30 13.5 30 30v120.1z" fill="#0b70b9"/>
<path d="M459.9 624.6l-114.3-45.3 114.3-43.7v-46.5L296.1 560v39.5l163.8 71.2zM568.7 454.8h-34.4L475.1 702h33.8zM747.9 560.3l-164-70.9v45.8l114.4 44.5-114.4 45v46.2l164-71.4z" fill="#0b70b9"/>
</g>
<g id="SVGRepo_iconCarrier">
<path d="M854.7 828.1H169.9c-38.9 0-70.5-31.6-70.5-70.5v-499c0-38.9 31.6-70.5 70.5-70.5h684.7c38.9 0 70.5 31.6 70.5 70.5v499c0.1 38.9-31.5 70.5-70.4 70.5z" fill="#FFFFFF"/>
<path d="M885.2 258.1c0-16.5-13.5-30-30-30H169.4c-16.5 0-30 13.5-30 30v120.1h745.7V258.1z m-649.7 96.1c-28.2 0-51.2-23-51.2-51.2s23-51.2 51.2-51.2 51.2 23 51.2 51.2-22.9 51.2-51.2 51.2z m281.8-6.8H374.7c-24.1 0-43.7-19.6-43.7-43.7s19.6-43.7 43.7-43.7h142.6c24.1 0 43.7 19.6 43.7 43.7s-19.6 43.7-43.7 43.7z" fill="#E6E6E6"/>
<path d="M213.3 752.8h298.8c5.5 0 10-4.5 10-10s-4.5-10-10-10H213.3c-8.5 0-15.4-6.9-15.4-15.4V524.6c0-5.5-4.5-10-10-10s-10 4.5-10 10v192.9c0.1 19.4 15.9 35.3 35.4 35.3z" fill="#06F3FF"/>
<path d="M235.5 271.8c-17.2 0-31.2 14-31.2 31.2s14 31.2 31.2 31.2 31.2-14 31.2-31.2-14-31.2-31.2-31.2z" fill="#FFFFFF"/>
<path d="M235.5 251.8c-28.2 0-51.2 23-51.2 51.2s23 51.2 51.2 51.2 51.2-23 51.2-51.2-22.9-51.2-51.2-51.2z m0 82.4c-17.2 0-31.2-14-31.2-31.2s14-31.2 31.2-31.2 31.2 14 31.2 31.2-14 31.2-31.2 31.2z" fill="#0b70b9"/>
<path d="M517.3 280.1H374.7c-13 0-23.7 10.6-23.7 23.7s10.6 23.7 23.7 23.7h142.6c13 0 23.7-10.6 23.7-23.7s-10.7-23.7-23.7-23.7z" fill="#FFFFFF"/>
<path d="M517.3 260.1H374.7c-24.1 0-43.7 19.6-43.7 43.7s19.6 43.7 43.7 43.7h142.6c24.1 0 43.7-19.6 43.7-43.7s-19.6-43.7-43.7-43.7z m0 67.3H374.7c-13 0-23.7-10.6-23.7-23.7s10.6-23.7 23.7-23.7h142.6c13 0 23.7 10.6 23.7 23.7s-10.7 23.7-23.7 23.7z" fill="#0b70b9"/>
<path d="M855.2 188.1H169.4c-38.6 0-70 31.4-70 70v500c0 38.6 31.4 70 70 70h685.7c38.6 0 70-31.4 70-70v-500c0.1-38.6-31.3-70-69.9-70z m30 570c0 16.5-13.5 30-30 30H169.4c-16.5 0-30-13.5-30-30V398.2h745.7v359.9z m0-379.9H139.5V258.1c0-16.5 13.5-30 30-30h685.7c16.5 0 30 13.5 30 30v120.1z" fill="#0b70b9"/>
<path d="M459.9 624.6l-114.3-45.3 114.3-43.7v-46.5L296.1 560v39.5l163.8 71.2zM568.7 454.8h-34.4L475.1 702h33.8zM747.9 560.3l-164-70.9v45.8l114.4 44.5-114.4 45v46.2l164-71.4z" fill="#0b70b9"/>
</g>
</svg>