<!DOCTYPE svg PUBLIC "-//W3C//DTD SVG 1.1//EN" "http://www.w3.org/Graphics/SVG/1.1/DTD/svg11.dtd">
<!-- Uploaded to: SVG Repo, www.svgrepo.com, Transformed by: SVG Repo Mixer Tools -->
<svg width="800px" height="800px" viewBox="-102.4 -102.4 1228.80 1228.80" class="icon" version="1.1" xmlns="http://www.w3.org/2000/svg" fill="#000000">
<g id="SVGRepo_bgCarrier" stroke-width="0">
<path transform="translate(-102.4, -102.4), scale(38.4)" d="M16,25.33367610639996C17.793455455147054,25.62966632735601,19.312943773729774,27.896220013624536,21.026437164656045,27.289562713536313C22.674060659887726,26.70622645646511,22.403409435345594,24.106354605020048,23.440446313684237,22.699407952222245C24.363739502584405,21.44677722248854,25.73466032309579,20.661827421741076,26.76874702603039,19.498978012506807C28.213412191358348,17.87442561349081,30.634698421254015,16.615790730563425,30.779397889939226,14.446622687090787C30.91522825803192,12.410410001052718,28.31946219944018,11.236334684408178,27.442859290655242,9.39346210824119C26.482896951417143,7.375343925645671,27.547257673244694,3.630289968732796,25.378277853535067,3.091907917239137C22.616427990303958,2.4063642428480536,20.736260599440044,6.718164394344536,17.90736139772853,7.0265701385894666C16.194450718101162,7.213311148186399,15.187134462453912,4.858508403249769,13.530839278522903,4.383512124597287C11.495818173538929,3.799903924063562,8.831254619773148,2.552259978330837,7.262452696135082,3.9737978616986744C5.59877789860227,5.481302865780264,7.526817568301168,8.536752190079158,6.6612366802506,10.608262483444474C5.939750800973295,12.334924250210914,3.5875668314149953,12.90932933902485,2.8163016209016405,14.614337463891518C1.9961190625514638,16.427485401590133,1.9621634631237252,18.50958821647453,2.192928712537933,20.486189408588253C2.4449704041594678,22.64503225596722,2.3165344631977387,25.554544101634963,4.2167415997956414,26.609693518550486C6.425091633692987,27.83594891236192,9.150400238673376,26.01596179233918,11.661685955657363,25.744012880338666C13.12175500909133,25.585900966651735,14.55099620179147,25.09453386667105,16,25.33367610639996" fill="#7ed0ec" strokewidth="0"/>
</g>
<g id="SVGRepo_tracerCarrier" stroke-linecap="round" stroke-linejoin="round"/>
<g id="SVGRepo_iconCarrier">
<path d="M854.7 828.1H169.9c-38.9 0-70.5-31.6-70.5-70.5v-499c0-38.9 31.6-70.5 70.5-70.5h684.7c38.9 0 70.5 31.6 70.5 70.5v499c0.1 38.9-31.5 70.5-70.4 70.5z" fill="#FFFFFF"/>
<path d="M885.2 258.1c0-16.5-13.5-30-30-30H169.4c-16.5 0-30 13.5-30 30v120.1h745.7V258.1z m-649.7 96.1c-28.2 0-51.2-23-51.2-51.2s23-51.2 51.2-51.2 51.2 23 51.2 51.2-22.9 51.2-51.2 51.2z m281.8-6.8H374.7c-24.1 0-43.7-19.6-43.7-43.7s19.6-43.7 43.7-43.7h142.6c24.1 0 43.7 19.6 43.7 43.7s-19.6 43.7-43.7 43.7z" fill="#E6E6E6"/>
<path d="M213.3 752.8h298.8c5.5 0 10-4.5 10-10s-4.5-10-10-10H213.3c-8.5 0-15.4-6.9-15.4-15.4V524.6c0-5.5-4.5-10-10-10s-10 4.5-10 10v192.9c0.1 19.4 15.9 35.3 35.4 35.3z" fill="#06F3FF"/>
<path d="M235.5 271.8c-17.2 0-31.2 14-31.2 31.2s14 31.2 31.2 31.2 31.2-14 31.2-31.2-14-31.2-31.2-31.2z" fill="#FFFFFF"/>
<path d="M235.5 251.8c-28.2 0-51.2 23-51.2 51.2s23 51.2 51.2 51.2 51.2-23 51.2-51.2-22.9-51.2-51.2-51.2z m0 82.4c-17.2 0-31.2-14-31.2-31.2s14-31.2 31.2-31.2 31.2 14 31.2 31.2-14 31.2-31.2 31.2z" fill="#0b70b9"/>
<path d="M517.3 280.1H374.7c-13 0-23.7 10.6-23.7 23.7s10.6 23.7 23.7 23.7h142.6c13 0 23.7-10.6 23.7-23.7s-10.7-23.7-23.7-23.7z" fill="#FFFFFF"/>
<path d="M517.3 260.1H374.7c-24.1 0-43.7 19.6-43.7 43.7s19.6 43.7 43.7 43.7h142.6c24.1 0 43.7-19.6 43.7-43.7s-19.6-43.7-43.7-43.7z m0 67.3H374.7c-13 0-23.7-10.6-23.7-23.7s10.6-23.7 23.7-23.7h142.6c13 0 23.7 10.6 23.7 23.7s-10.7 23.7-23.7 23.7z" fill="#0b70b9"/>
<path d="M855.2 188.1H169.4c-38.6 0-70 31.4-70 70v500c0 38.6 31.4 70 70 70h685.7c38.6 0 70-31.4 70-70v-500c0.1-38.6-31.3-70-69.9-70z m30 570c0 16.5-13.5 30-30 30H169.4c-16.5 0-30-13.5-30-30V398.2h745.7v359.9z m0-379.9H139.5V258.1c0-16.5 13.5-30 30-30h685.7c16.5 0 30 13.5 30 30v120.1z" fill="#0b70b9"/>
<path d="M459.9 624.6l-114.3-45.3 114.3-43.7v-46.5L296.1 560v39.5l163.8 71.2zM568.7 454.8h-34.4L475.1 702h33.8zM747.9 560.3l-164-70.9v45.8l114.4 44.5-114.4 45v46.2l164-71.4z" fill="#0b70b9"/>
</g>
</svg>